# xmcd
#
# Track frame offsets:
#	150
#	20010
#	38912
#	70585
#	103451
#	118786
#	134140
#	148019
#	163262
#	213957
#	223484
#	238384
#	249702
#	263566
#
# Disc length: 3724 seconds
#
# Revision: 2
# Processed by: cddbd v1.5.2PL0 Copyright (c) Steve Scherf et al.
# Submitted via: audiograbber 1.83.01
#
DISCID=ea0e8a0e
DTITLE=петяокоуйас вакйиас - жуса, ьувг лоу! CD2
DYEAR=2015
DGENRE=гпеияытийа
TTITLE0=се тоу' тгм табка поу 'ласте - гкиас йомтгс
TTITLE1=вакасиа лоу - калпяос вакйиас
TTITLE2=циаммг лоу то ламтгки соу - вягстос жытиоу
TTITLE3=дем лпояы, ламоука, дем лпояы - ояцамийо
TTITLE4=йаицолаи йаи сицокиымы - амтымгс йуяитсгс
TTITLE5=йомтоука келомиа - вягстос жытиоу
TTITLE6=та йацйекиа - ояцамийо
TTITLE7=лпаялпа лукымас - петяос тфоулас
TTITLE8=лпеяати - ояцамийо
TTITLE9=паяе, лаяиы л', тг яойа соу - петяос тфоулас
TTITLE10=яелпап - ояцамийо
TTITLE11=жефодеябемацас - петяос тфоулас
TTITLE12=сйаяос - ояцамийо
TTITLE13=сам та поукиа еяволасте - циаммгс йымстамтимоу
EXTD=
EXTT0=
EXTT1=
EXTT2=
EXTT3=
EXTT4=
EXTT5=
EXTT6=
EXTT7=
EXTT8=
EXTT9=
EXTT10=
EXTT11=
EXTT12=
EXTT13=
PLAYORDER=
